{
  "accessors": [
    {
      "bufferView": 2,
      "componentType": 5126,
      "count": 9779,
      "max": [
        2.5909955501556396,
        2.573418617248535,
        0.7509936690330505
      ],
      "min": [
        -2.5835394859313965,
        -2.587233781814575,
        -0.9963173866271973
      ],
      "type": "VEC3"
    },
    {
      "bufferView": 2,
      "byteOffset": 117348,
      "componentType": 5126,
      "count": 9779,
      "max": [
        0.9943705201148987,
        0.986348032951355,
        1.0
      ],
      "min": [
        -0.9946714639663696,
        -0.9863482117652893,
        -0.9995908141136169
      ],
      "type": "VEC3"
    },
    {
      "bufferView": 1,
      "componentType": 5126,
      "count": 9779,
      "max": [
        0.998494029045105,
        0.9956328272819519
      ],
      "min": [
        0.0,
        0.0
      ],
      "type": "VEC2"
    },
    {
      "bufferView": 0,
      "componentType": 5125,
      "count": 55602,
      "type": "SCALAR"
    },
    {
      "bufferView": 2,
      "byteOffset": 234696,
      "componentType": 5126,
      "count": 12,
      "max": [
        -0.5494470596313477,
        2.418691635131836,
        -0.4644998610019684
      ],
      "min": [
        -0.8302429914474487,
        2.219278573989868,
        -0.5063266158103943
      ],
      "type": "VEC3"
    },
    {
      "bufferView": 2,
      "byteOffset": 234840,
      "componentType": 5126,
      "count": 12,
      "max": [
        -0.06516671180725098,
        0.330078661441803,
        -0.9405788779258728
      ],
      "min": [
        -0.11381286382675171,
        0.26144033670425415,
        -0.9607287645339966
      ],
      "type": "VEC3"
    },
    {
      "bufferView": 1,
      "byteOffset": 78232,
      "componentType": 5126,
      "count": 12,
      "max": [
        0.9953058362007141,
        0.9942879676818848
      ],
      "min": [
        0.006264784373342991,
        0.009744882583618164
      ],
      "type": "VEC2"
    },
    {
      "bufferView": 0,
      "byteOffset": 222408,
      "componentType": 5125,
      "count": 36,
      "type": "SCALAR"
    },
    {
      "bufferView": 2,
      "byteOffset": 234984,
      "componentType": 5126,
      "count": 492,
      "max": [
        0.9655091166496277,
        0.9655027985572815,
        0.515298068523407
      ],
      "min": [
        -0.9654953479766846,
        -0.9655020236968994,
        0.26230478286743164
      ],
      "type": "VEC3"
    },
    {
      "bufferView": 2,
      "byteOffset": 240888,
      "componentType": 5126,
      "count": 492,
      "max": [
        0.8177229762077332,
        0.8177039623260498,
        0.9011713862419128
      ],
      "min": [
        -0.8176777362823486,
        -0.8176949620246887,
        0.5756120085716248
      ],
      "type": "VEC3"
    },
    {
      "bufferView": 1,
      "byteOffset": 78328,
      "componentType": 5126,
      "count": 492,
      "max": [
        0.0,
        0.0
      ],
      "min": [
        0.0,
        0.0
      ],
      "type": "VEC2"
    },
    {
      "bufferView": 0,
      "byteOffset": 222552,
      "componentType": 5125,
      "count": 2160,
      "type": "SCALAR"
    },
    {
      "bufferView": 2,
      "byteOffset": 246792,
      "componentType": 5126,
      "count": 11099,
      "max": [
        2.486307144165039,
        -26.340120315551758,
        -8.319841384887695
      ],
      "min": [
        -2.4860236644744873,
        -31.28400993347168,
        -8.394124984741211
      ],
      "type": "VEC3"
    },
    {
      "bufferView": 2,
      "byteOffset": 379980,
      "componentType": 5126,
      "count": 11099,
      "max": [
        1.0,
        0.8679050207138062,
        1.0
      ],
      "min": [
        -1.0,
        -0.8679096698760986,
        -1.0
      ],
      "type": "VEC3"
    },
    {
      "bufferView": 1,
      "byteOffset": 82264,
      "componentType": 5126,
      "count": 11099,
      "max": [
        0.0,
        0.0
      ],
      "min": [
        0.0,
        0.0
      ],
      "type": "VEC2"
    },
    {
      "bufferView": 0,
      "byteOffset": 231192,
      "componentType": 5125,
      "count": 20268,
      "type": "SCALAR"
    },
    {
      "bufferView": 2,
      "byteOffset": 513168,
      "componentType": 5126,
      "count": 409,
      "max": [
        0.09676729887723923,
        0.09645763039588928,
        -0.3834865093231201
      ],
      "min": [
        -0.09652340412139893,
        -0.09683306515216827,
        -0.4634735584259033
      ],
      "type": "VEC3"
    },
    {
      "bufferView": 2,
      "byteOffset": 518076,
      "componentType": 5126,
      "count": 409,
      "max": [
        0.9951868653297424,
        0.9951868653297424,
        1.0
      ],
      "min": [
        -0.9951868653297424,
        -0.9951868653297424,
        0.0
      ],
      "type": "VEC3"
    },
    {
      "bufferView": 1,
      "byteOffset": 171056,
      "componentType": 5126,
      "count": 409,
      "max": [
        1.0000001192092896,
        1.0
      ],
      "min": [
        0.0,
        0.0
      ],
      "type": "VEC2"
    },
    {
      "bufferView": 0,
      "byteOffset": 312264,
      "componentType": 5125,
      "count": 1704,
      "type": "SCALAR"
    },
    {
      "bufferView": 2,
      "byteOffset": 522984,
      "componentType": 5126,
      "count": 2347,
      "max": [
        2.358874559402466,
        2.2616641521453857,
        0.13089467585086823
      ],
      "min": [
        -2.358443021774292,
        -2.3852179050445557,
        -0.46704813838005066
      ],
      "type": "VEC3"
    },
    {
      "bufferView": 2,
      "byteOffset": 551148,
      "componentType": 5126,
      "count": 2347,
      "max": [
        1.0,
        1.0,
        1.0
      ],
      "min": [
        -1.0,
        -1.0,
        -0.9999996423721313
      ],
      "type": "VEC3"
    },
    {
      "bufferView": 3,
      "componentType": 5126,
      "count": 2347,
      "max": [
        1.0,
        1.0,
        1.0,
        1.0
      ],
      "min": [
        0.9960784316062927,
        0.9960784316062927,
        0.9960784316062927,
        0.9960784316062927
      ],
      "type": "VEC4"
    },
    {
      "bufferView": 1,
      "byteOffset": 174328,
      "componentType": 5126,
      "count": 2347,
      "max": [
        1.0078204870224,
        0.997891902923584
      ],
      "min": [
        -0.04198078811168671,
        0.0
      ],
      "type": "VEC2"
    },
    {
      "bufferView": 0,
      "byteOffset": 319080,
      "componentType": 5125,
      "count": 10383,
      "type": "SCALAR"
    },
    {
      "bufferView": 2,
      "byteOffset": 579312,
      "componentType": 5126,
      "count": 2115,
      "max": [
        0.6944007873535156,
        0.7872679233551025,
        -0.48170673847198486
      ],
      "min": [
        -0.692152738571167,
        -0.43893885612487793,
        -0.9011498093605042
      ],
      "type": "VEC3"
    },
    {
      "bufferView": 2,
      "byteOffset": 604692,
      "componentType": 5126,
      "count": 2115,
      "max": [
        1.0,
        1.0,
        1.0
      ],
      "min": [
        -1.0,
        -1.0,
        -0.9904586672782898
      ],
      "type": "VEC3"
    },
    {
      "bufferView": 1,
      "byteOffset": 193104,
      "componentType": 5126,
      "count": 2115,
      "max": [
        1.0,
        1.0
      ],
      "min": [
        0.0,
        0.014134024269878864
      ],
      "type": "VEC2"
    },
    {
      "bufferView": 0,
      "byteOffset": 360612,
      "componentType": 5125,
      "count": 6606,
      "type": "SCALAR"
    },
    {
      "bufferView": 2,
      "byteOffset": 630072,
      "componentType": 5126,
      "count": 106,
      "max": [
        0.2557843327522278,
        2.444889545440674,
        -0.06997162103652954
      ],
      "min": [
        -0.2553204894065857,
        1.7437371015548706,
        -0.4618017375469208
      ],
      "type": "VEC3"
    },
    {
      "bufferView": 2,
      "byteOffset": 631344,
      "componentType": 5126,
      "count": 106,
      "max": [
        0.10581298917531967,
        -0.3509826362133026,
        0.8465275764465332
      ],
      "min": [
        -0.10296259075403214,
        -0.9983434677124023,
        -0.9356749653816223
      ],
      "type": "VEC3"
    },
    {
      "bufferView": 1,
      "byteOffset": 210024,
      "componentType": 5126,
      "count": 106,
      "max": [
        0.0,
        0.0
      ],
      "min": [
        0.0,
        0.0
      ],
      "type": "VEC2"
    },
    {
      "bufferView": 0,
      "byteOffset": 387036,
      "componentType": 5125,
      "count": 480,
      "type": "SCALAR"
    },
    {
      "bufferView": 2,
      "byteOffset": 632616,
      "componentType": 5126,
      "count": 514,
      "max": [
        0.2704662084579468,
        2.5872995853424072,
        -0.0448644757270813
      ],
      "min": [
        -0.27040982246398926,
        1.7437371015548706,
        -0.48248130083084106
      ],
      "type": "VEC3"
    },
    {
      "bufferView": 2,
      "byteOffset": 638784,
      "componentType": 5126,
      "count": 514,
      "max": [
        0.9946718215942383,
        0.9586520195007324,
        0.9356747269630432
      ],
      "min": [
        -0.9943706393241882,
        -0.8166998028755188,
        -0.9449152946472168
      ],
      "type": "VEC3"
    },
    {
      "bufferView": 1,
      "byteOffset": 210872,
      "componentType": 5126,
      "count": 514,
      "max": [
        0.0,
        0.0
      ],
      "min": [
        0.0,
        0.0
      ],
      "type": "VEC2"
    },
    {
      "bufferView": 0,
      "byteOffset": 388956,
      "componentType": 5125,
      "count": 1140,
      "type": "SCALAR"
    },
    {
      "bufferView": 2,
      "byteOffset": 644952,
      "componentType": 5126,
      "count": 13086,
      "max": [
        2.4485855102539063,
        2.431772470474243,
        0.16891050338745117
      ],
      "min": [
        -2.441129207611084,
        -2.44482421875,
        -0.9917604327201843
      ],
      "type": "VEC3"
    },
    {
      "bufferView": 2,
      "byteOffset": 801984,
      "componentType": 5126,
      "count": 13086,
      "max": [
        1.0,
        1.0,
        1.0
      ],
      "min": [
        -1.0,
        -1.0,
        -0.999495267868042
      ],
      "type": "VEC3"
    },
    {
      "bufferView": 1,
      "byteOffset": 214984,
      "componentType": 5126,
      "count": 13086,
      "max": [
        0.998494029045105,
        1.000602126121521
      ],
      "min": [
        0.0,
        0.0
      ],
      "type": "VEC2"
    },
    {
      "bufferView": 0,
      "byteOffset": 393516,
      "componentType": 5125,
      "count": 68499,
      "type": "SCALAR"
    },
    {
      "bufferView": 2,
      "byteOffset": 959016,
      "componentType": 5126,
      "count": 1610,
      "max": [
        2.4205501079559326,
        2.320106029510498,
        0.13113954663276672
      ],
      "min": [
        -2.4201183319091797,
        -2.445986747741699,
        -0.5102967023849487
      ],
      "type": "VEC3"
    },
    {
      "bufferView": 2,
      "byteOffset": 978336,
      "componentType": 5126,
      "count": 1610,
      "max": [
        0.9999427795410156,
        0.9983038306236267,
        0.0039370059967041016
      ],
      "min": [
        -0.9999427795410156,
        -0.9975672364234924,
        -0.23820525407791138
      ],
      "type": "VEC3"
    },
    {
      "bufferView": 3,
      "byteOffset": 37552,
      "componentType": 5126,
      "count": 1610,
      "max": [
        1.0,
        1.0,
        1.0,
        1.0
      ],
      "min": [
        1.0,
        1.0,
        1.0,
        1.0
      ],
      "type": "VEC4"
    },
    {
      "bufferView": 1,
      "byteOffset": 319672,
      "componentType": 5126,
      "count": 1610,
      "max": [
        0.0,
        0.0
      ],
      "min": [
        0.0,
        0.0
      ],
      "type": "VEC2"
    },
    {
      "bufferView": 0,
      "byteOffset": 667512,
      "componentType": 5125,
      "count": 4776,
      "type": "SCALAR"
    },
    {
      "bufferView": 4,
      "componentType": 5126,
      "count": 493,
      "max": [
        10.375
      ],
      "min": [
        0.0
      ],
      "type": "SCALAR"
    },
    {
      "bufferView": 5,
      "componentType": 5126,
      "count": 493,
      "max": [
        0.0,
        2.6469779601696886e-23,
        0.9982724189758301
      ],
      "min": [
        0.0,
        -2.6469779601696886e-23,
        0.0
      ],
      "type": "VEC3"
    },
    {
      "bufferView": 4,
      "byteOffset": 1972,
      "componentType": 5126,
      "count": 493,
      "max": [
        10.375
      ],
      "min": [
        0.0
      ],
      "type": "SCALAR"
    },
    {
      "bufferView": 5,
      "byteOffset": 5916,
      "componentType": 5126,
      "count": 493,
      "max": [
        0.0,
        2.6469779601696886e-23,
        0.9982724189758301
      ],
      "min": [
        0.0,
        -2.6469779601696886e-23,
        0.0
      ],
      "type": "VEC3"
    },
    {
      "bufferView": 4,
      "byteOffset": 3944,
      "componentType": 5126,
      "count": 493,
      "max": [
        10.375
      ],
      "min": [
        0.0
      ],
      "type": "SCALAR"
    },
    {
      "bufferView": 5,
      "byteOffset": 11832,
      "componentType": 5126,
      "count": 493,
      "max": [
        0.0,
        2.6469779601696886e-23,
        0.9982724189758301
      ],
      "min": [
        0.0,
        -2.6469779601696886e-23,
        0.0
      ],
      "type": "VEC3"
    }
  ],
  "animations": [
    {
      "channels": [
        {
          "sampler": 0,
          "target": {
            "node": 8,
            "path": "translation"
          }
        }
      ],
      "name": "Circle.003|doorAction.001",
      "samplers": [
        {
          "input": 46,
          "interpolation": "LINEAR",
          "output": 47
        }
      ]
    },
    {
      "channels": [
        {
          "sampler": 0,
          "target": {
            "node": 14,
            "path": "translation"
          }
        }
      ],
      "name": "Cylinder.003|doorAction.001",
      "samplers": [
        {
          "input": 48,
          "interpolation": "LINEAR",
          "output": 49
        }
      ]
    },
    {
      "channels": [
        {
          "sampler": 0,
          "target": {
            "node": 16,
            "path": "translation"
          }
        }
      ],
      "name": "door|doorAction.001",
      "samplers": [
        {
          "input": 50,
          "interpolation": "LINEAR",
          "output": 51
        }
      ]
    }
  ],
  "asset": {
    "extras": {
      "author": "helloworld123 (https://sketchfab.com/helloworld123)",
      "license": "CC-BY-4.0 (http://creativecommons.org/licenses/by/4.0/)",
      "source": "https://sketchfab.com/3d-models/boblazarsportmodel-016c62ebd27f49a58fc2d391145e1ce0",
      "title": "BobLazarSportModel"
    },
    "generator": "Sketchfab-15.12.0",
    "version": "2.0"
  },
  "bufferViews": [
    {
      "buffer": 0,
      "byteLength": 686616,
      "name": "floatBufferViews",
      "target": 34963
    },
    {
      "buffer": 0,
      "byteLength": 332552,
      "byteOffset": 686616,
      "byteStride": 8,
      "name": "floatBufferViews",
      "target": 34962
    },
    {
      "buffer": 0,
      "byteLength": 997656,
      "byteOffset": 1019168,
      "byteStride": 12,
      "name": "floatBufferViews",
      "target": 34962
    },
    {
      "buffer": 0,
      "byteLength": 63312,
      "byteOffset": 2016824,
      "byteStride": 16,
      "name": "floatBufferViews",
      "target": 34962
    },
    {
      "buffer": 0,
      "byteLength": 5916,
      "byteOffset": 2080136,
      "name": "floatBufferViews"
    },
    {
      "buffer": 0,
      "byteLength": 17748,
      "byteOffset": 2086052,
      "byteStride": 12,
      "name": "floatBufferViews"
    }
  ],
  "buffers": [
    {
      "byteLength": 2103800,
      "uri": "scene.bin"
    }
  ],
  "images": [
    {
      "uri": "textures/USAflag_baseColor.png"
    }
  ],
  "materials": [
    {
      "doubleSided": true,
      "name": "Material.025",
      "pbrMetallicRoughness": {
        "baseColorFactor": [
          0.515177,
          0.515177,
          0.515177,
          1.0
        ],
        "metallicFactor": 0.8579073764796235,
        "roughnessFactor": 0.24
      }
    },
    {
      "doubleSided": true,
      "name": "USAflag",
      "pbrMetallicRoughness": {
        "baseColorTexture": {
          "index": 0
        },
        "metallicFactor": 0.0,
        "roughnessFactor": 0.44952517950530896
      }
    },
    {
      "doubleSided": true,
      "name": "Material.006",
      "pbrMetallicRoughness": {
        "baseColorFactor": [
          0.0,
          0.0,
          0.0,
          1.0
        ],
        "metallicFactor": 0.29104850605258986,
        "roughnessFactor": 0.8640026331508819
      }
    },
    {
      "doubleSided": true,
      "name": "Material.026",
      "pbrMetallicRoughness": {
        "baseColorFactor": [
          0.110986,
          0.110986,
          0.110986,
          1.0
        ],
        "metallicFactor": 0.0,
        "roughnessFactor": 0.9751827759449209
      }
    }
  ],
  "meshes": [
    {
      "name": "ufodiagram1 (1).005_Material.025_0",
      "primitives": [
        {
          "attributes": {
            "NORMAL": 1,
            "POSITION": 0,
            "TEXCOORD_0": 2
          },
          "indices": 3,
          "material": 0,
          "mode": 4
        }
      ]
    },
    {
      "name": "ufodiagram1 (1).005_USAflag_0",
      "primitives": [
        {
          "attributes": {
            "NORMAL": 5,
            "POSITION": 4,
            "TEXCOORD_0": 6
          },
          "indices": 7,
          "material": 1,
          "mode": 4
        }
      ]
    },
    {
      "name": "ufodiagram1 (1).005_Material.006_0",
      "primitives": [
        {
          "attributes": {
            "NORMAL": 9,
            "POSITION": 8,
            "TEXCOORD_0": 10
          },
          "indices": 11,
          "material": 2,
          "mode": 4
        }
      ]
    },
    {
      "name": "Circle.003_Material.026_0",
      "primitives": [
        {
          "attributes": {
            "NORMAL": 13,
            "POSITION": 12,
            "TEXCOORD_0": 14
          },
          "indices": 15,
          "material": 3,
          "mode": 4
        }
      ]
    },
    {
      "name": "Cube_Material.026_0",
      "primitives": [
        {
          "attributes": {
            "NORMAL": 17,
            "POSITION": 16,
            "TEXCOORD_0": 18
          },
          "indices": 19,
          "material": 3,
          "mode": 4
        }
      ]
    },
    {
      "name": "Cylinder.001_Material.026_0",
      "primitives": [
        {
          "attributes": {
            "COLOR_0": 22,
            "NORMAL": 21,
            "POSITION": 20,
            "TEXCOORD_0": 23
          },
          "indices": 24,
          "material": 3,
          "mode": 4
        }
      ]
    },
    {
      "name": "Cylinder.003_Material.026_0",
      "primitives": [
        {
          "attributes": {
            "NORMAL": 26,
            "POSITION": 25,
            "TEXCOORD_0": 27
          },
          "indices": 28,
          "material": 3,
          "mode": 4
        }
      ]
    },
    {
      "name": "door_Material.026_0",
      "primitives": [
        {
          "attributes": {
            "NORMAL": 30,
            "POSITION": 29,
            "TEXCOORD_0": 31
          },
          "indices": 32,
          "material": 3,
          "mode": 4
        }
      ]
    },
    {
      "name": "door_Material.025_0",
      "primitives": [
        {
          "attributes": {
            "NORMAL": 34,
            "POSITION": 33,
            "TEXCOORD_0": 35
          },
          "indices": 36,
          "material": 0,
          "mode": 4
        }
      ]
    },
    {
      "name": "ufodiagram1 (1).002_Material.026_0",
      "primitives": [
        {
          "attributes": {
            "NORMAL": 38,
            "POSITION": 37,
            "TEXCOORD_0": 39
          },
          "indices": 40,
          "material": 3,
          "mode": 4
        }
      ]
    },
    {
      "name": "ufodiagram1 (1).006_Material.026_0",
      "primitives": [
        {
          "attributes": {
            "COLOR_0": 43,
            "NORMAL": 42,
            "POSITION": 41,
            "TEXCOORD_0": 44
          },
          "indices": 45,
          "material": 3,
          "mode": 4
        }
      ]
    }
  ],
  "nodes": [
    {
      "children": [
        1
      ],
      "matrix": [
        1.0,
        0.0,
        0.0,
        0.0,
        0.0,
        2.220446049250313e-16,
        -1.0,
        0.0,
        0.0,
        1.0,
        2.220446049250313e-16,
        0.0,
        0.0,
        0.0,
        0.0,
        1.0
      ],
      "name": "Sketchfab_model"
    },
    {
      "children": [
        2
      ],
      "matrix": [
        0.009999999776482582,
        0.0,
        0.0,
        0.0,
        0.0,
        0.0,
        0.009999999776482582,
        0.0,
        0.0,
        -0.009999999776482582,
        0.0,
        0.0,
        0.0,
        0.0,
        0.0,
        1.0
      ],
      "name": "UFO.fbx"
    },
    {
      "children": [
        3
      ],
      "name": "Object_2"
    },
    {
      "children": [
        4
      ],
      "name": "RootNode"
    },
    {
      "children": [
        5,
        6,
        7,
        8,
        10,
        12,
        14,
        16,
        19,
        21
      ],
      "name": "ufodiagram1 (1).005",
      "rotation": [
        -0.7071068286895752,
        0.0,
        0.0,
        0.7071067094802856
      ],
      "scale": [
        100.0,
        100.0,
        100.0
      ]
    },
    {
      "mesh": 0,
      "name": "ufodiagram1 (1).005_Material.025_0"
    },
    {
      "mesh": 1,
      "name": "ufodiagram1 (1).005_USAflag_0"
    },
    {
      "mesh": 2,
      "name": "ufodiagram1 (1).005_Material.006_0"
    },
    {
      "children": [
        9
      ],
      "name": "Circle.003",
      "scale": [
        0.05594867095351219,
        0.05594867095351219,
        0.05594867095351219
      ]
    },
    {
      "mesh": 3,
      "name": "Circle.003_Material.026_0"
    },
    {
      "children": [
        11
      ],
      "name": "Cube",
      "rotation": [
        -1.3234889800848443e-23,
        -0.0,
        0.0,
        1.0
      ]
    },
    {
      "mesh": 4,
      "name": "Cube_Material.026_0"
    },
    {
      "children": [
        13
      ],
      "name": "Cylinder.001",
      "rotation": [
        -1.3234889800848443e-23,
        -0.0,
        0.0,
        1.0
      ]
    },
    {
      "mesh": 5,
      "name": "Cylinder.001_Material.026_0"
    },
    {
      "children": [
        15
      ],
      "name": "Cylinder.003",
      "scale": [
        0.9999999403953552,
        0.9999999403953552,
        1.0
      ]
    },
    {
      "mesh": 6,
      "name": "Cylinder.003_Material.026_0"
    },
    {
      "children": [
        17,
        18
      ],
      "name": "door",
      "rotation": [
        -1.3234889800848443e-23,
        -0.0,
        0.0,
        1.0
      ]
    },
    {
      "mesh": 7,
      "name": "door_Material.026_0"
    },
    {
      "mesh": 8,
      "name": "door_Material.025_0"
    },
    {
      "children": [
        20
      ],
      "name": "ufodiagram1 (1).002",
      "rotation": [
        -1.3234889800848443e-23,
        -0.0,
        0.0,
        1.0
      ]
    },
    {
      "mesh": 9,
      "name": "ufodiagram1 (1).002_Material.026_0"
    },
    {
      "children": [
        22
      ],
      "name": "ufodiagram1 (1).006",
      "rotation": [
        -1.3234889800848443e-23,
        -0.0,
        0.0,
        1.0
      ]
    },
    {
      "mesh": 10,
      "name": "ufodiagram1 (1).006_Material.026_0"
    }
  ],
  "samplers": [
    {
      "magFilter": 9729,
      "minFilter": 9987,
      "wrapS": 10497,
      "wrapT": 10497
    }
  ],
  "scene": 0,
  "scenes": [
    {
      "name": "Sketchfab_Scene",
      "nodes": [
        0
      ]
    }
  ],
  "textures": [
    {
      "sampler": 0,
      "source": 0
    }
  ]
}
